<?xml version="1.0" encoding="UTF-8" standalone="no"?>
<!-- Created with Inkscape (http://www.inkscape.org/) -->

<svg
   xmlns="http://www.w3.org/2000/svg"
   version="1.0"
   width="61.022789"
   height="40.104813"
>
 <defs>
</defs>
  <g connects="0,20;60,20"
	stroke='black'
	stroke-width='2px' 
     id="R"
    class="photo-resistor" >

<metadata class="part" >
<wtx:part xmlns:wtx="http://code.google.com/p/webtronics" >
    <wtx:pins>
        <wtx:analog>
                <wtx:node index="1" x="0" y="20"/>
                <wtx:node index="2" x="60" y="20"/>
        </wtx:analog>
    </wtx:pins>
    <wtx:id>r</wtx:id>
    <wtx:type>r</wtx:type>
    <wtx:name>photoresistor</wtx:name>
    <wtx:category>resistors</wtx:category>
    <wtx:value></wtx:value>
    <wtx:label></wtx:label>
    <wtx:spice></wtx:spice>
    <wtx:flip></wtx:flip>
    <wtx:model></wtx:model>
</wtx:part>
</metadata>

    <path
       d="m 11.406524,18.410498 3.819574,-4.560383 4.471942,10.682183 3.810665,-10.363194 5.070138,10.173312 3.287417,-10.409232 4.682872,10.649472 3.059394,-10.243794 5.060847,10.535864 3.916121,-5.971522"
       id="path3444"
       fill='none' />
    <path
       d="M 0,20 10.687274,20"
       id="path2159"
        />
    <path
       d="m 61.369505,20 -12.171381,0"
       id="path2161"
        />
    <path
       d="M 42.795793,26.964401 19.751828,10"
       id="path2242"
        />
    <path
       d="m 20.011796,13.98641 -0.740497,-3.944704 4.099181,0.369668"
       id="path2244"
        />
    <path
       d="m 48.724184,19.920574 c 0,10.686868 -8.342101,19.350285 -18.632607,19.350285 -10.290506,0 -18.632608,-8.663417 -18.632608,-19.350285 0,-10.6868674 8.342102,-19.35028542 18.632608,-19.35028542 10.290506,0 18.632607,8.66341802 18.632607,19.35028542 l 0,0 z"
       id="path2289"
       fill='none'
 />
    <path
       d="m 11.700184,7.2138539 3,0 -1,-3"
       id="path3261"
 />
    <path
       d="m 7.9880993,2.8058763 5.9999997,3.884912"
       id="path3265"
 />
  </g>
</svg>
