<?xml version="1.0" encoding="UTF-8" standalone="no"?>
<!-- Created with Inkscape (http://www.inkscape.org/) -->
<svg
   xmlns="http://www.w3.org/2000/svg"
   version="1.1"
   width="40.776154"
   height="20"
>
  <defs>
</defs>
  <g connects="0,20;40,20"
	stroke='black'
	stroke-width='2px' 
     id="S"
    class="nopb">
<metadata class="part" >
<wtx:part xmlns:wtx="http://code.google.com/p/webtronics" >
    <wtx:pins>
        <wtx:analog>
            <wtx:node index="1" x="0" y="20"/>
            <wtx:node index="2" x="40" y="20"/>
        </wtx:analog>
    </wtx:pins>
    <wtx:id>s</wtx:id>
    <wtx:type>s</wtx:type>
    <wtx:name>nopb</wtx:name>
    <wtx:category>switches</wtx:category>
    <wtx:value></wtx:value>
    <wtx:label></wtx:label>
    <wtx:spice></wtx:spice>
    <wtx:flip></wtx:flip>
    <wtx:model></wtx:model>
</wtx:part>
</metadata>
    <path
       d="M 14.823,17.426654 C 14.823,18.563832 14.108298,19.485697 13.226668,19.485697 C 12.345039,19.485697 11.630336,18.563832 11.630336,17.426654 C 11.630336,16.289476 12.345039,15.367611 13.226668,15.367611 C 14.108298,15.367611 14.823,16.289476 14.823,17.426654 L 14.823,17.426654 z"
       id="path3734"
        />
    <path
       d="M 28.726067,17.323298 C 28.726067,18.525458 27.989707,19.5 27.081361,19.5 C 26.173016,19.5 25.436656,18.525458 25.436656,17.323298 C 25.436656,16.121138 26.173016,15.146596 27.081361,15.146596 C 27.989707,15.146596 28.726067,16.121138 28.726067,17.323298 z"
       id="path3736"
        />
    <path
       d="M 12.138988,19.259646 L 0.49999997,19.25502"
       id="path3740"
        />
    <path
       d="M 27.816258,19.311537 L 40.276155,19.311537"
       id="path3742"
        />
    <path
       d="M 12.302377,10.596425 L 27.896333,10.596425"
       id="path3744"
        />
    <path
       d="M 19.822814,10.357704 L 19.726067,0.5"
       id="path3749"
        />
  </g>
</svg>
