<?xml version="1.0" encoding="UTF-8" standalone="no"?>
<svg id="svg2826" width="30" height="20" xmlns="http://www.w3.org/2000/svg">
 <g id="aadc" class="adc_bridge"  stroke="black">
<metadata class="part" >

<wtx:part xmlns:wtx="http://code.google.com/p/webtronics" >
<!--pin data -->
    <wtx:pins>
        <wtx:analog>
            <wtx:node index="1" x="0" y="10" />
        </wtx:analog>
        <wtx:digital>
            <wtx:node index="2" x="30" y="10" />
        </wtx:digital>
    </wtx:pins>
<!--id for svg diagram and spice-->
    <wtx:id>ada</wtx:id>
<!--type of part-->
    <wtx:type>ada</wtx:type>
<!--name of file-->
    <wtx:name>adc_bridge</wtx:name>
<!--category of part-->
    <wtx:category>digital</wtx:category>
<!--value or model name-->
    <wtx:value/>
<!--label id for svg diagram-->
    <wtx:label/>
<!--spice data-->
    <wtx:spice/>
<!--true if flippable-->
    <wtx:flip/>
<!--model or spice directive describing part spice-->
    <wtx:model/>
</wtx:part>
</metadata>
  <path id="path2846" d="m23.609,10.047c0,5.3886-4.3682,9.7572-9.7572,9.7572-5.3888,0-9.7572-4.3686-9.7572-9.7572,0-5.3888,4.3684-9.7572,9.7572-9.7572,5.389,0,9.7572,4.3684,9.7572,9.7572z" stroke-width="0.48559496" fill="none" />
  <path id="path3620" fill="none"  d="m5.3326,10.25s0.34324,2.6863,1.3335,2.7751c1.1006,0.099,1.9674-2.775,1.9674-2.775s0.92008-2.8841,2.033-2.7751c0.99,0.0969,1.334,2.7751,1.334,2.7751"/>
  <rect id="rect3624" y="7.25" width="6.0007" x="14" height="6.2441"/>
  <path id="path3628" stroke-width="2" d="m5,10-5,0"/>
  <path id="path3630" stroke-width="2" d="m24,10,6,0"/>
  <path id="path3632" d="m14,0.25,10,10-10,10" fill="none"/>
 </g>
</svg>
