<?xml version="1.0" encoding="UTF-8" standalone="no"?>
<!-- Created with Inkscape (http://www.inkscape.org/) -->

<svg
   xmlns="http://www.w3.org/2000/svg"
   version="1.0"
   width="60.318184"
   height="40.902729"
>
 <defs>
</defs>
  <g 
	stroke='black'
	stroke-width='2px' 
     id="G"
    class="xor" >
<metadata class="part" >
    <wtx:part xmlns:wtx="http://code.google.com/p/webtronics" >
        <wtx:pins>
        <wtx:digital>
            <wtx:node index="1" x="0" y="10" />
            <wtx:node index="2" x="0" y="30" />
            <wtx:node index="3" x="60" y="20" />
        </wtx:digital>
    </wtx:pins>
    <wtx:id>xor</wtx:id>

    <wtx:type>xor</wtx:type>
    <wtx:name>xor</wtx:name>
    <wtx:category>digital</wtx:category>
    <wtx:flip></wtx:flip>
    <wtx:value></wtx:value>
    <wtx:label></wtx:label>
    <wtx:spice></wtx:spice>
    <wtx:model></wtx:model>
    </wtx:part>
</metadata>
  <path id="path2189" fill="none" d="M10.864,0.66291l9.272-0.09091c1.055,0.0492,13.888,1.5474,20.909,8.4635,5.022,4.9455,7.841,9.5075,8.374,11.096,0.911,2.712-0.233-1.391-0.01,0.027,0.27,1.715-2.936,8.017-9.474,14.222-7.265,6.895-19.797,6.02-19.799,6.01l-9.272-0.273c4.003-12.651,5.429-25.624,0-39.454z"/>
  <path id="path2191"  fill="none" d="m50,20l10,0"/>
  <path id="path2193" d="M0,10l13,0"/>
  <path id="path2195" d="M0,30h13"/>
  <path id="path3223" fill="none" d="M7.3402,0.59291c4.2808,15.544,3.1698,27.526-0.2222,39.234"/>

  </g>
</svg>
